<svg xmlns="http://www.w3.org/2000/svg" version="1.1" id="pcb"><g id="resistor1"><circle cx="20" cy="36" r="1.0" style="fill:none;stroke:black;" /><circle cx="20" cy="43" r="1.0" style="fill:none;stroke:black;" /><path d="M 20 36 L 20 43" style="stroke:black;stroke-width:1;" /></g><g id="resistor2"><circle cx="40" cy="26" r="1.0" style="fill:none;stroke:black;" /><circle cx="40" cy="33" r="1.0" style="fill:none;stroke:black;" /><path d="M 40 26 L 40 33" style="stroke:black;stroke-width:1;" /></g><g id="resistor3"><circle cx="56" cy="60" r="1.0" style="fill:none;stroke:black;" /><circle cx="63" cy="60" r="1.0" style="fill:none;stroke:black;" /><path d="M 56 60 L 63 60" style="stroke:black;stroke-width:1;" /></g><g id="resistor4"><circle cx="56" cy="80" r="1.0" style="fill:none;stroke:black;" /><circle cx="63" cy="80" r="1.0" style="fill:none;stroke:black;" /><path d="M 56 80 L 63 80" style="stroke:black;stroke-width:1;" /></g><g id="resistor5"><circle cx="56" cy="100" r="1.0" style="fill:none;stroke:black;" /><circle cx="63" cy="100" r="1.0" style="fill:none;stroke:black;" /><path d="M 56 100 L 63 100" style="stroke:black;stroke-width:1;" /></g><g id="resistor6"><circle cx="96" cy="55" r="1.0" style="fill:none;stroke:black;" /><circle cx="103" cy="55" r="1.0" style="fill:none;stroke:black;" /><path d="M 96 55 L 103 55" style="stroke:black;stroke-width:1;" /></g><g id="resistor7"><circle cx="96" cy="65" r="1.0" style="fill:none;stroke:black;" /><circle cx="103" cy="65" r="1.0" style="fill:none;stroke:black;" /><path d="M 96 65 L 103 65" style="stroke:black;stroke-width:1;" /></g><g id="resistor8"><circle cx="96" cy="75" r="1.0" style="fill:none;stroke:black;" /><circle cx="103" cy="75" r="1.0" style="fill:none;stroke:black;" /><path d="M 96 75 L 103 75" style="stroke:black;stroke-width:1;" /></g><path id="track" d="M 20 43 M 21 43 M 22 43 M 23 43 M 24 43 M 25 43 M 26 43 M 27 43 M 28 43 M 29 43 M 30 43 M 31 43 M 32 43 M 33 43 M 34 43 M 35 43 M 36 43 M 36 42 M 36 41 M 36 40 M 36 39 M 36 38 M 36 37 M 36 36 M 36 35 M 36 34 M 36 33 M 36 32 M 36 31 M 36 30 M 36 29 M 36 28 M 36 27 M 36 26 M 37 26 M 38 26 M 39 26 M 40 26" style="stroke:black;stroke-width:1;" /><path id="track" d="M 56 60 M 56 61 M 56 62 M 56 63 M 56 64 M 56 65 M 56 66 M 56 67 M 56 68 M 56 69 M 56 70 M 56 71 M 56 72 M 56 73 M 56 74 M 56 75 M 56 76 M 56 77 M 56 78 M 56 79 M 56 80" style="stroke:black;stroke-width:1;" /><path id="track" d="M 63 60 M 63 61 M 63 62 M 63 63 M 63 64 M 63 65 M 63 66 M 63 67 M 63 68 M 63 69 M 63 70 M 63 71 M 63 72 M 63 73 M 63 74 M 63 75 M 63 76 M 63 77 M 63 78 M 63 79 M 63 80" style="stroke:black;stroke-width:1;" /><path id="track" d="M 56 60 M 55 60 M 54 60 M 54 61 M 54 62 M 54 63 M 54 64 M 54 65 M 54 66 M 54 67 M 54 68 M 54 69 M 54 70 M 54 71 M 54 72 M 54 73 M 54 74 M 54 75 M 54 76 M 54 77 M 54 78 M 54 79 M 54 80 M 54 81 M 54 82 M 54 83 M 54 84 M 54 85 M 54 86 M 54 87 M 54 88 M 54 89 M 54 90 M 54 91 M 54 92 M 54 93 M 54 94 M 54 95 M 54 96 M 54 97 M 54 98 M 54 99 M 54 100 M 55 100 M 56 100" style="stroke:black;stroke-width:1;" /><path id="track" d="M 63 60 M 64 60 M 65 60 M 66 60 M 66 61 M 66 62 M 66 63 M 66 64 M 66 65 M 66 66 M 66 67 M 66 68 M 66 69 M 66 70 M 66 71 M 66 72 M 66 73 M 66 74 M 66 75 M 66 76 M 66 77 M 66 78 M 66 79 M 66 80 M 66 81 M 66 82 M 66 83 M 66 84 M 66 85 M 66 86 M 66 87 M 66 88 M 66 89 M 66 90 M 66 91 M 66 92 M 66 93 M 66 94 M 66 95 M 66 96 M 66 97 M 66 98 M 66 99 M 66 100 M 65 100 M 64 100 M 63 100" style="stroke:black;stroke-width:1;" /><path id="track" d="M 96 55 M 96 56 M 96 57 M 96 58 M 96 59 M 96 60 M 96 61 M 96 62 M 96 63 M 96 64 M 96 65" style="stroke:black;stroke-width:1;" /><path id="track" d="M 103 55 M 103 56 M 103 57 M 103 58 M 103 59 M 103 60 M 103 61 M 103 62 M 103 63 M 103 64 M 103 65" style="stroke:black;stroke-width:1;" /><path id="track" d="M 96 55 M 95 55 M 94 55 M 94 56 M 94 57 M 94 58 M 94 59 M 94 60 M 94 61 M 94 62 M 94 63 M 94 64 M 94 65 M 94 66 M 94 67 M 94 68 M 94 69 M 94 70 M 94 71 M 94 72 M 94 73 M 94 74 M 94 75 M 95 75 M 96 75" style="stroke:black;stroke-width:1;" /><path id="track" d="M 103 55 M 104 55 M 105 55 M 106 55 M 106 56 M 106 57 M 106 58 M 106 59 M 106 60 M 106 61 M 106 62 M 106 63 M 106 64 M 106 65 M 106 66 M 106 67 M 106 68 M 106 69 M 106 70 M 106 71 M 106 72 M 106 73 M 106 74 M 106 75 M 105 75 M 104 75 M 103 75" style="stroke:black;stroke-width:1;" /><path id="track" d="M 20 36 M 19 36 M 18 36 M 17 36 M 16 36 M 16 37 M 16 38 M 16 39 M 16 40 M 16 41 M 16 42 M 16 43 M 16 44 M 16 45 M 16 46 M 16 47 M 16 48 M 16 49 M 16 50 M 16 51 M 16 52 M 16 53 M 16 54 M 16 55 M 16 56 M 17 56 M 18 56 M 19 56 M 20 56 M 21 56 M 22 56 M 23 56 M 24 56 M 25 56 M 26 56 M 27 56 M 28 56 M 29 56 M 30 56 M 31 56 M 32 56 M 33 56 M 34 56 M 35 56 M 36 56 M 37 56 M 38 56 M 39 56 M 40 56 M 41 56 M 42 56 M 43 56 M 44 56 M 45 56 M 46 56 M 47 56 M 48 56 M 49 56 M 50 56 M 51 56 M 52 56 M 53 56 M 54 56 M 55 56 M 56 56 M 56 57 M 56 58 M 56 59 M 56 60" style="stroke:black;stroke-width:1;" /><path id="track" d="M 40 33 M 41 33 M 42 33 M 43 33 M 44 33 M 45 33 M 46 33 M 47 33 M 48 33 M 49 33 M 50 33 M 51 33 M 52 33 M 53 33 M 54 33 M 55 33 M 56 33 M 57 33 M 58 33 M 59 33 M 60 33 M 61 33 M 62 33 M 63 33 M 64 33 M 65 33 M 66 33 M 67 33 M 67 34 M 67 35 M 67 36 M 67 37 M 67 38 M 67 39 M 67 40 M 67 41 M 67 42 M 67 43 M 67 44 M 67 45 M 67 46 M 67 47 M 67 48 M 67 49 M 67 50 M 67 51 M 67 52 M 67 53 M 67 54 M 67 55 M 67 56 M 67 57 M 67 58 M 67 59 M 67 60 M 67 61 M 67 62 M 67 63 M 67 64 M 67 65 M 67 66 M 67 67 M 67 68 M 67 69 M 67 70 M 67 71 M 67 72 M 67 73 M 67 74 M 67 75 M 67 76 M 67 77 M 67 78 M 67 79 M 67 80 M 67 81 M 67 82 M 67 83 M 67 84 M 67 85 M 67 86 M 67 87 M 67 88 M 67 89 M 67 90 M 67 91 M 67 92 M 67 93 M 67 94 M 67 95 M 67 96 M 67 97 M 67 98 M 67 99 M 67 100 M 67 101 M 67 102 M 67 103 M 67 104 M 66 104 M 65 104 M 64 104 M 63 104 M 63 103 M 63 102 M 63 101 M 63 100" style="stroke:black;stroke-width:1;" /><path id="track" d="M 20 36 M 20 35 M 20 34 M 20 33 M 20 32 M 20 31 M 20 30 M 20 29 M 20 28 M 20 27 M 20 26 M 20 25 M 20 24 M 20 23 M 20 22 M 20 21 M 20 20 M 21 20 M 22 20 M 23 20 M 24 20 M 25 20 M 26 20 M 27 20 M 28 20 M 29 20 M 30 20 M 31 20 M 32 20 M 33 20 M 34 20 M 35 20 M 36 20 M 37 20 M 38 20 M 39 20 M 40 20 M 41 20 M 42 20 M 43 20 M 44 20 M 45 20 M 46 20 M 47 20 M 48 20 M 49 20 M 50 20 M 51 20 M 52 20 M 53 20 M 54 20 M 55 20 M 56 20 M 57 20 M 58 20 M 59 20 M 60 20 M 61 20 M 62 20 M 63 20 M 64 20 M 65 20 M 66 20 M 67 20 M 68 20 M 69 20 M 70 20 M 71 20 M 72 20 M 73 20 M 74 20 M 75 20 M 76 20 M 77 20 M 78 20 M 79 20 M 80 20 M 81 20 M 82 20 M 83 20 M 84 20 M 85 20 M 86 20 M 87 20 M 88 20 M 89 20 M 90 20 M 91 20 M 92 20 M 93 20 M 94 20 M 95 20 M 96 20 M 96 21 M 96 22 M 96 23 M 96 24 M 96 25 M 96 26 M 96 27 M 96 28 M 96 29 M 96 30 M 96 31 M 96 32 M 96 33 M 96 34 M 96 35 M 96 36 M 96 37 M 96 38 M 96 39 M 96 40 M 96 41 M 96 42 M 96 43 M 96 44 M 96 45 M 96 46 M 96 47 M 96 48 M 96 49 M 96 50 M 96 51 M 96 52 M 96 53 M 96 54 M 96 55" style="stroke:black;stroke-width:1;" /><path id="track" d="M 40 33 M 41 33 M 42 33 M 43 33 M 44 33 M 45 33 M 46 33 M 47 33 M 48 33 M 49 33 M 50 33 M 51 33 M 52 33 M 53 33 M 54 33 M 55 33 M 56 33 M 57 33 M 58 33 M 59 33 M 60 33 M 61 33 M 62 33 M 63 33 M 64 33 M 65 33 M 66 33 M 67 33 M 68 33 M 69 33 M 70 33 M 71 33 M 72 33 M 73 33 M 74 33 M 75 33 M 76 33 M 77 33 M 78 33 M 79 33 M 80 33 M 81 33 M 82 33 M 83 33 M 84 33 M 85 33 M 86 33 M 87 33 M 88 33 M 89 33 M 90 33 M 91 33 M 92 33 M 93 33 M 94 33 M 95 33 M 96 33 M 97 33 M 98 33 M 99 33 M 100 33 M 101 33 M 102 33 M 103 33 M 104 33 M 105 33 M 106 33 M 106 34 M 106 35 M 106 36 M 106 37 M 106 38 M 106 39 M 106 40 M 106 41 M 106 42 M 106 43 M 106 44 M 106 45 M 106 46 M 106 47 M 106 48 M 106 49 M 106 50 M 106 51 M 106 52 M 106 53 M 106 54 M 106 55 M 106 56 M 106 57 M 106 58 M 106 59 M 106 60 M 106 61 M 106 62 M 106 63 M 106 64 M 106 65 M 106 66 M 106 67 M 106 68 M 106 69 M 106 70 M 106 71 M 106 72 M 106 73 M 106 74 M 106 75 M 105 75 M 104 75 M 103 75" style="stroke:black;stroke-width:1;" /></svg>